<svg viewBox="0 0 560 560" version="1.1" xmlns="http://www.w3.org/2000/svg" style="fill:#cc7b19;stroke-miterlimit:1.41421;clip-rule:evenodd;fill-rule:evenodd;stroke-linejoin:round">
 <path d="m280 0c-154 0-280 126-280 280 0 154 126 280 280 280 154 0 280-126 280-280 0-154-126-280-280-280m0 547.75c-147.875 0-267.75-119.875-267.75-267.75 0-147.875 119.875-267.75 267.75-267.75 147.875 0 267.75 119.875 267.75 267.75 0 147.875-119.875 267.75-267.75 267.75m43.75-307.125l-162.75-24.5c-5.25-.875-9.625-3.5-12.25-7-2.625-3.5-4.375-8.75-3.5-13.125l5.25-38.5c.875-9.625 10.5-16.625 20.125-14.875l233.625 34.125c4.375.875 8.75 2.625 11.375 6.125 2.625 3.5 4.375 8.75 3.5 13.125l-5.25 38.5c0 4.375-1.75 7-4.375 9.625 4.375 3.5 7 8.75 7 14l0 135.625c0 10.5-8.75 18.375-18.375 18.375l-236.25 0c-10.5 0-18.375-8.75-18.375-18.375l0-134.75c0-10.499 8.749-18.374 18.375-18.375l161.875 0m74.375 158.375c2.627-.002 5.25-2.626 5.25-5.25l0-79.625-246.75 0 0 79.625c0 2.625 1.75 5.25 5.25 5.25l236.25 0m-173.25-97.125c.875-.875.875-.876.875-1.75l29.75-47.25-42 0c0 .875 0 .875-.875 2.625l-28.875 46.375 41.125 0m56.875 0c.875-.875.875-.876.875-1.75l29.75-47.25-42 0c0 .383-.167.598-.356.793l-.163.164c-.189.195-.356.41-.356.793l-29.75 47.25 42 0m56 0c.875-.875.875-.876.875-1.75l29.75-47.25-42 0c0 .383-.167.598-.356.793l-.163.164c-.189.195-.356.41-.356.793l-29.75 47.25 42 0m-168.875 0c.875-.875.875-.876.875-1.75l29.75-47.25-37.625 0c-3.5 0-5.25 2.625-6.125 6.125l0 42.875 13.125 0m234.5-.875l0-42.875c0-2.625-1.75-5.25-5.25-5.25l-14.875 0c0 .383-.167.598-.356.793l-.163.164c-.189.195-.356.41-.356.793l-28.875 46.375 49.875 0m-.875-112l-43.75-6.125 21.875 49.875 0 3.5 15.75 1.75c2.625 0 5.25-1.75 5.25-4.375l5.25-38.5c0-1.75 0-3.5-.875-4.375-.875-.875-2.625-1.75-3.5-1.75m-77.875 35.875l0 2.625 42.875 7-22.75-51.625 0-1.75-42-6.125 21.875 49.875m-56-8.75c0 .875.875 2.625 0 3.5l42.875 6.125-22.75-51.625 0-1.75-42-6.125 21.875 49.875m-56-7.875c.875.875.875 1.75 0 2.625l42.875 6.125-22.75-51.625 0-1.75-42-6.125 21.875 50.75m-50.75-4.375l37.625 5.25-22.75-51.625 0-1.75-7.875-.875c-3.5 0-6.125 1.75-6.125 4.375l-5.25 38.5c0 1.75 0 3.5.875 4.375.875.875 1.75 1.75 3.5 1.75"/>
</svg>
