<svg viewBox="0 0 560 560" version="1.1" xmlns="http://www.w3.org/2000/svg" style="fill:#cc7b19;stroke-miterlimit:1.41421;clip-rule:evenodd;fill-rule:evenodd;stroke-linejoin:round">
 <path d="m280 560c-154 0-280-126-280-280 0-154 126-280 280-280 154 0 280 126 280 280 0 154-126 280-280 280m0-547.87c-147.47 0-267.87 120.4-267.87 267.87 0 147.47 120.4 267.87 267.87 267.87 147.47 0 267.87-120.4 267.87-267.87-.933-147.47-120.4-267.87-267.87-267.87m-28.34 403.87h-89.75l-2.296-.457c-1.933-1.291-1.956-1.314-3.247-3.247l-.457-2.296v-117.89h-30.907c-.764-.152-1.573-.158-2.293-.455-.72-.298-1.393-.747-1.945-1.297-1.124-1.123-1.758-2.645-1.762-4.234-.002-.779.154-1.573.45-2.294.296-.72.862-1.298 1.292-1.948l155-156.11 1.952-1.311 2.306-.461c.769.154 1.537.307 2.306.461l1.952 1.311 155 156.11c.43.65.996 1.228 1.292 1.948.604 1.47.6 3.119-.011 4.586-.299.719-.75 1.391-1.301 1.942-.552.55-1.225.999-1.945 1.297-.72.297-1.528.303-2.293.455h-30.26v117.89l-.456 2.296c-1.292 1.933-1.315 1.956-3.248 3.247l-2.296.457h-88.34l-2.296-.457c-1.934-1.291-1.956-1.314-3.248-3.247l-.456-2.296v-78.24h-46.733v78.24l-.457 2.296c-1.291 1.933-1.314 1.956-3.247 3.247l-2.296.457m-112.25-135.89h22.494l2.296.457c1.933 1.291 1.956 1.314 3.247 3.247l.457 2.296v117.89h77.75v-78.24l.457-2.296c1.292-1.934 1.314-1.956 3.247-3.248l2.296-.456h58.733l2.296.456c1.933 1.292 1.955 1.315 3.247 3.248l.457 2.296v78.24h76.34v-117.89l.457-2.296c1.292-1.933 1.314-1.956 3.247-3.247l2.296-.457h21.852l-140.59-141.59-140.59 141.59" style="fill-rule:nonzero"/>
</svg>
