<svg viewBox="0 0 560 560" version="1.1" xmlns="http://www.w3.org/2000/svg" style="fill:#cc7b19;stroke-miterlimit:1.41421;clip-rule:evenodd;fill-rule:evenodd;stroke-linejoin:round">
 <path d="m280 560c-154.346 0-280-125.653-280-280 0-154.347 125.653-280 280-280 154.346 0 280 125.653 280 280 0 154.347-125.653 280-280 280m0-547.533c-147.619 0-267.534 120.113-267.534 267.534 0 147.618 120.113 267.533 267.534 267.533 147.421 0 267.534-120.113 267.534-267.533 0-147.619-119.915-267.534-267.534-267.534m77.129 376.849c0-18.785-35.604-33.993-79.438-33.993-43.835 0-79.438 15.207-79.438 33.993 0 18.786 35.424 33.994 79.438 33.994 43.833 0 79.438-15.207 79.438-33.994m11.45-141.699c0-50.096-40.614-90.709-90.709-90.709-50.096 0-90.709 40.613-90.709 90.709 0 50.095 40.613 90.709 90.709 90.709 49.917 0 90.709-40.614 90.709-90.709m22.543-85.163c0-12.524-10.198-22.723-22.722-22.723-12.524 0-22.722 10.199-22.722 22.723 0 12.524 10.198 22.722 22.722 22.722 12.703 0 22.722-10.198 22.722-22.722"/>
</svg>
