<svg viewBox="0 0 560 560" version="1.1" xmlns="http://www.w3.org/2000/svg" style="fill:#cc7b19;stroke-miterlimit:1.41421;clip-rule:evenodd;fill-rule:evenodd;stroke-linejoin:round">
 <path d="m280 560c-154 0-280-126-280-280 0-154 126-280 280-280 154 0 280 126 280 280 0 154-126 280-280 280m0-547.867c-147.466 0-267.866 120.4-267.866 267.866 0 147.467 120.4 267.867 267.866 267.867 147.466 0 267.866-120.4 267.866-267.867-.933-147.466-120.4-267.866-267.866-267.866m134.4 387.333l-269.734 0c-3.733 0-6.533-2.8-6.533-6.533l0-224.934c0-3.733 2.8-6.533 6.533-6.533l269.734 0c3.734 0 6.534 2.8 6.534 6.533l0 224.934c0 3.733-2.8 6.533-6.534 6.533m-263.2-79.393l0 66.327 257.6 0 0-32.317c-.933.35-1.867.583-2.8.583-1.866 0-2.8-.933-3.734-1.866l-53.2-45.734-61.6 41.067-80.266-85.867-56 57.807m257.6 22.719l0-168.258-257.6 0 0 128.514 56.934-58.514 81.2 87.733 60.666-40.133 58.8 50.658m-113.866-69.326c-21.467 0-38.267-16.8-38.267-38.266 0-21.466 16.8-38.266 38.267-38.266 21.466 0 38.266 16.8 38.266 38.266 0 20.534-17.734 38.266-38.266 38.266m0-64.4c-14 0-26.134 11.2-26.134 26.134 0 14 11.2 26.134 26.134 26.134 14 0 26.133-11.2 26.133-26.134-.933-14.934-12.133-26.134-26.133-26.134"/>
</svg>
