<svg viewBox="0 0 560 560" version="1.1" xmlns="http://www.w3.org/2000/svg" style="fill:#cc7b19;stroke-miterlimit:1.41421;clip-rule:evenodd;fill-rule:evenodd;stroke-linejoin:round">
 <path d="m280 560c-154.346 0-280-125.653-280-280 0-154.346 125.654-280 280-280 154.346 0 280 125.654 280 280 0 154.347-125.456 280-280 280m0-547.731c-147.619 0-267.534 120.113-267.534 267.534 0 147.618 120.113 267.534 267.534 267.534 147.421 0 267.534-120.114 267.534-267.534.198-147.421-119.915-267.534-267.534-267.534m-33.354 224.605c25.726.001 40.298 16.192 40.477 37.6 0 13.313-3.778 13.852-9.895 13.852l-54.51 0c0 6.297 6.117 12.414 14.393 12.414 6.476 0 10.613-2.878 12.413-4.678l31.843 0c-5.937 12.594-22.668 28.245-45.875 28.245-24.107 0-41.198-13.672-41.198-37.42 0-22.128 18.89-50.012 52.352-50.013l-.001 0 .001 0m178.643 0c24.467.001 40.298 15.472 40.298 36.88 0 27.166-22.847 50.553-51.632 50.553-27.525 0-40.838-17.271-40.838-37.24 0-23.747 19.789-50.192 52.172-50.193m-288.743 1.979l10.794 43.177 20.688-31.123c3.778-5.757 7.736-12.053 22.128-12.053l17.81 0-49.113 72.68c-5.937 8.635-11.154 11.874-18.53 11.874-9.175 0-13.312-6.837-15.471-15.652l-17.451-68.903 29.145 0m180.082 0l10.794 43.177 20.689-31.123c3.777-5.757 7.735-12.053 22.128-12.053l17.81 0-49.114 72.68c-5.937 8.635-11.154 11.874-18.53 11.874-9.175 0-13.312-6.837-15.471-15.652l-17.45-68.903 29.144 0m85.633 46.055c0 7.377 4.857 13.673 13.853 13.673 11.154 0 20.149-11.514 20.149-22.128 0-4.677-2.698-13.672-13.673-13.672-10.794 0-20.329 10.973-20.329 22.127m-145.72-14.032c.72 0 1.439-.36 1.439-1.259 0-2.339-4.857-9.175-13.673-9.175-9.714 0-16.01 7.196-17.81 10.434l30.044 0" style="fill-rule:nonzero"/>
</svg>
