<svg viewBox="0 0 560 560" version="1.1" xmlns="http://www.w3.org/2000/svg" style="fill:#cc7b19;stroke-miterlimit:1.41421;clip-rule:evenodd;fill-rule:evenodd;stroke-linejoin:round">
 <path d="m280 560c-154 0-280-126-280-280 0-154 126-280 280-280 154 0 280 126 280 280 0 154-126 280-280 280m0-547.866c-147.466 0-267.866 120.4-267.866 267.866 0 147.466 120.4 267.867 267.866 267.867 147.466 0 267.866-120.401 267.866-267.867 0-147.466-120.4-267.866-267.866-267.866m-3.734 224.933c1.167-1.167 2.8-1.867 4.668-1.867 2.951 0 5.319 1.75 6.181 4.327l68.484 49.807c2.8 1.866 3.734 5.6.934 8.4 0 1.866-1.866 2.799-3.734 2.8l.001 0-.001 0c-.933 0-2.799-.001-3.733-.934l-61.599-44.723 0 146.457c-.933 2.8-3.733 5.6-6.533 5.6-3.734 0-6.534-2.8-6.534-6.534l0-145.676-62.534 43.943c-2.8 1.867-6.533 1.867-8.4-.933-1.866-2.8-1.866-6.534.934-8.4l71.866-52.267m-53.199 110.134l-37.333 0c-28.934 0-52.267-23.334-52.267-52.267 0-28.933 23.334-52.266 52.267-52.266l6.533 0 0-8.4c0-44.8 36.4-81.2 81.2-81.2 39.2 0 72.8 28 79.334 65.333 4.666-.933 8.4-.933 13.066-.933 35.467 0 64.4 28.933 64.4 64.4 0 17.733-7.466 35.466-21.466 47.6-10.267 11.2-25.2 17.733-39.2 17.733l-.001-.001-29.866 0c-3.734 0-6.534-2.8-6.534-6.534 0-3.733 2.8-6.533 6.534-6.533l29.866 0c11.2 0 22.4-4.667 29.866-13.067 11.2-10.266 17.734-24.266 17.734-39.2 0-28.933-23.334-52.266-52.266-52.266-5.6 0-11.2.934-15.867 2.8-1.866.934-3.733 0-5.6-.934-1.866-.933-2.8-2.8-2.8-4.666-3.733-35.466-32.666-61.6-68.133-61.6-37.334 0-68.134 30.8-68.134 68.134 0 4.666 0 9.333.934 13.066 0 1.866 0 3.734-.934 5.6-.934 1.866-2.8 1.866-4.666 1.866l-14 0c-22.401.001-40.134 17.734-40.134 40.134 0 22.4 17.733 40.133 40.134 40.134l37.333 0c3.734 0 6.534 2.8 6.534 6.533 0 3.734-2.8 6.534-6.534 6.534"/>
</svg>
