<svg viewBox="0 0 560 560" version="1.1" xmlns="http://www.w3.org/2000/svg" style="fill:#cc7b19;stroke-miterlimit:1.41421;clip-rule:evenodd;fill-rule:evenodd;stroke-linejoin:round">
 <path d="m280 560c-154 0-280-126-280-280 0-154 126-280 280-280 154 0 280 126 280 280 0 154-126 280-280 280m0-547.866c-147.466 0-267.866 120.4-267.866 267.866 0 147.466 120.4 267.867 267.866 267.867 147.466 0 267.866-120.401 267.866-267.867 0-147.466-120.4-267.866-267.866-267.866m86.801 410.666l-173.601 0c-3.734 0-6.534-2.8-6.534-6.534l0-273.466c0-3.734 2.8-6.534 6.534-6.534l174.534 0c3.733 0 6.533 2.8 6.533 6.534l0 273.466c-.933 3.734-3.733 6.534-7.466 6.534m-168.001-12.134l161.466 0 0-261.334-161.466 0 0 261.334m96.134-34.532c0 8.247-6.687 14.933-14.934 14.933-8.247 0-14.934-6.686-14.934-14.933 0-8.248 6.687-14.934 14.934-14.934 8.247 0 14.934 6.686 14.934 14.934m47.6-28l-125.067 0c-3.733 0-6.533-2.8-6.533-6.534l0-156.8c0-3.734 2.8-6.534 6.533-6.534l124.134 0c3.733 0 6.533 2.8 6.533 6.534l0 157.734c0 2.799-2.8 5.599-5.6 5.6m-118.534-12.134l112 0 0-145.6-112 0 0 145.6"/>
</svg>
