<svg viewBox="0 0 560 560" version="1.1" xmlns="http://www.w3.org/2000/svg" style="stroke-miterlimit:1.41421;clip-rule:evenodd;fill-rule:evenodd;stroke-linejoin:round">
 <path d="m280 560c-154.35 0-280-125.65-280-280 0-154.35 125.65-280 280-280 154.35 0 280 125.65 280 280 0 154.35-125.46 280-280 280m0-547.73c-147.62 0-267.53 120.11-267.53 267.53 0 147.62 120.11 267.53 267.53 267.53 147.42 0 267.53-120.11 267.53-267.53.198-147.42-119.91-267.53-267.53-267.53m-12.65 357.73l-61.5 48.6c-1.2.9-2.7 1.4-4.1 1.4-1 0-2-.2-2.9-.7-2.3-1.1-3.8-3.4-3.8-6v-43.3h-36.7c-11 0-20-9-20-20v-150c0-11 9-20 20-20h243.3c11 0 20 9 20 20v150c0 11-9 20-20 20h-134.3m134.4-176.7h-243.4c-3.7 0-6.7 3-6.7 6.7v150c0 3.7 3 6.7 6.7 6.7h43.4c3.7 0 6.7 3 6.7 6.7v36.2l52.5-41.5c1.2-.9 2.6-1.4 4.1-1.4h136.7c3.7 0 6.7-3 6.7-6.7v-150c0-3.7-3-6.7-6.7-6.7m-43.4 107.8h-150c-3.7 0-6.7-3-6.7-6.7 0-3.7 3-6.7 6.7-6.7h150c3.7 0 6.7 3 6.7 6.7 0 3.7-2.999 6.699-6.7 6.7m0-41.1h-150c-3.7 0-6.7-3-6.7-6.7 0-3.7 3-6.7 6.7-6.7h150c3.7 0 6.7 3 6.7 6.7 0 3.7-2.999 6.699-6.7 6.7" style="fill:#cc7b19;fill-rule:nonzero"/>
</svg>
