<svg viewBox="0 0 262 68" xmlns="http://www.w3.org/2000/svg"><g fill="none" fill-rule="evenodd"><path d="m244.56 31.805c-1.73-1.408-3.752-2.157-6.5-2.157-3.228 0-5.455 1.035-7.385 2.957-2.783 2.771-2.672 6.162-2.672 8.676l-.002 14.902 6.489-.002.007-14.901c0-3.363.371-3.856.965-4.632.483-.628 1.409-1.236 2.597-1.236 1.188 0 2.116.608 2.597 1.236.594.776.965 1.181.965 4.648l-.012 14.874h1.194v.01h4.686l.007-14.901c0-3.363.371-3.856.965-4.632.483-.628 1.409-1.236 2.597-1.236 1.188 0 2.116.608 2.597 1.236.594.776.965 1.181.965 4.648l-.012 14.874 6.491.01.016-14.899c0-2.685.107-5.91-2.673-8.678-1.929-1.922-4.155-2.957-7.385-2.957-2.747 0-4.769.749-6.5 2.157m-22.12 21.652c-1.93 1.922-4.157 2.956-7.385 2.956-3.229 0-5.455-1.034-7.384-2.956-2.784-2.771-2.672-6.469-2.672-10.424 0-3.953-.111-7.649 2.672-10.42 1.929-1.922 4.155-2.957 7.384-2.957 3.228 0 5.455 1.035 7.385 2.957 2.782 2.771 2.671 6.467 2.671 10.42 0 3.956.111 7.653-2.671 10.424m-4.788-16.89c-.483-.628-1.41-1.146-2.598-1.146-1.188 0-2.115.518-2.597 1.146-.593.775-.965 1.663-.965 6.466 0 4.809.372 5.658.965 6.434.482.628 1.41 1.181 2.597 1.181 1.188 0 2.115-.553 2.598-1.181.593-.776.964-1.626.964-6.434 0-4.803-.371-5.691-.964-6.466m-24.473 19.877c-3.08 0-5.418-1.035-7.348-2.957-2.781-2.77-2.67-6.469-2.67-10.423 0-3.956-.111-7.65 2.67-10.42 1.93-1.922 4.268-2.958 7.348-2.958 5.01 0 9.06 2.772 10.02 8.574h-6.605c-.408-1.479-1.225-2.808-3.378-2.808-1.188 0-2.077.481-2.561 1.108-.594.776-1 1.7-1 6.504 0 4.806.408 5.731 1 6.507.483.629 1.373 1.109 2.561 1.109 2.153 0 2.969-1.33 3.378-2.809h6.605c-.965 5.801-5.01 8.574-10.02 8.574m-14.682-.443c1.933 0 3.5-1.567 3.5-3.5 0-1.933-1.567-3.5-3.5-3.5-1.933 0-3.5 1.567-3.5 3.5 0 1.933 1.567 3.5 3.5 3.5m-7.876-5.949c-1.824 0-3.03-.532-4.287-2.49-1.228-1.946-3.286-5.22-3.286-5.22l8.95-12.418h-7.773l-7.106 9.854v-17.776h-6.495v34.13h6.495v-10.833c0 0 3.638 5.689 4.743 7.443 1.781 2.705 4.155 3.42 8.096 3.42l1.899-.005v-6.101c-.69 0-.689-.002-1.235-.002m-32.442 6.392c-3.08 0-5.418-1.035-7.348-2.957-2.781-2.77-2.67-6.469-2.67-10.423 0-3.956-.111-7.65 2.67-10.42 1.93-1.922 4.268-2.958 7.348-2.958 5.01 0 9.06 2.772 10.02 8.574h-6.605c-.408-1.479-1.225-2.808-3.378-2.808-1.188 0-2.077.481-2.561 1.108-.594.776-1 1.7-1 6.504 0 4.806.408 5.731 1 6.507.483.629 1.373 1.109 2.561 1.109 2.153 0 2.969-1.33 3.378-2.809h6.605c-.965 5.801-5.01 8.574-10.02 8.574m-23.514-26.518l6.603.004.001 16.07c.01 2.705 1.845 4.048 4 4.048l.763.002v6.114l-1.372.015c-6.591-.041-9.988-3.637-9.988-9.961l-.009-16.292m6.644-3.215v-4.704h-6.47v4.694l6.471.011m-10.303 23.34c-1.824 0-3.03-.532-4.288-2.49-1.228-1.946-3.286-5.22-3.286-5.22l8.95-12.418h-7.773l-7.105 9.854v-17.776h-6.495v34.13h6.495v-10.833c0 0 3.637 5.689 4.742 7.443 1.781 2.705 4.156 3.42 8.097 3.42l1.899-.005v-6.101c-.69 0-.689-.002-1.235-.002m-29.65 8.08c0 3.464-2.403 4.076-3.956 4.076l-2.361.016v5.769l2.88.01c6.463-.041 9.989-3.404 9.989-9.859l-.023-19.426c0-3.03-1.4-5.433-3.45-6.984-1.828-1.383-4.176-2.077-6.516-2.077-3.08 0-5.418 1.036-7.346 2.958-2.784 2.77-2.672 6.465-2.672 10.42 0 3.954-.112 7.653 2.672 10.423 1.928 1.922 4.266 2.957 7.346 2.957 1.195 0 2.273-.238 3.437-.794v2.511m-3.4-7.482c-1.188 0-2.078-.481-2.561-1.109-.594-.775-1-1.7-1-6.507 0-4.804.408-5.728 1-6.504.483-.628 1.373-1.108 2.561-1.108 2.116 0 2.939 1.285 3.354 2.734v9.761c-.416 1.447-1.239 2.733-3.354 2.733m-12.675-9.365c0-2.685.107-5.91-2.673-8.678-1.929-1.922-4.155-2.957-7.385-2.957-3.228 0-5.455 1.035-7.385 2.957-2.783 2.771-2.672 6.162-2.672 8.676l-.002 14.902 6.489-.002.007-14.901c0-3.363.371-3.856.965-4.632.483-.628 1.409-1.236 2.597-1.236 1.188 0 2.116.608 2.597 1.236.594.776.965 1.181.965 4.648l-.012 14.874 6.491.01.016-14.899m-25.401 12.175c-1.93 1.922-4.157 2.956-7.385 2.956-3.229 0-5.455-1.034-7.384-2.956-2.784-2.771-2.672-6.469-2.672-10.424 0-3.953-.111-7.649 2.672-10.42 1.929-1.922 4.155-2.957 7.384-2.957 3.228 0 5.455 1.035 7.385 2.957 2.782 2.771 2.671 6.467 2.671 10.42 0 3.956.111 7.653-2.671 10.424m-4.788-16.89c-.483-.628-1.41-1.146-2.598-1.146-1.188 0-2.115.518-2.597 1.146-.593.775-.965 1.663-.965 6.466 0 4.809.372 5.658.965 6.434.482.628 1.41 1.181 2.597 1.181 1.188 0 2.115-.553 2.598-1.181.593-.776.964-1.626.964-6.434 0-4.803-.371-5.691-.964-6.466m-25.08 19.846c-4.045 0-7.348-.739-10.02-3.473l4.157-4.139c1.373 1.367 3.785 1.847 5.9 1.847 2.561 0 3.786-.849 3.786-2.364 0-.629-.147-1.147-.519-1.556-.334-.332-.891-.592-1.745-.703l-3.191-.442c-2.338-.333-4.119-1.109-5.307-2.329-1.225-1.256-1.818-3.03-1.818-5.283 0-4.804 3.637-8.316 9.648-8.316 3.785 0 6.643.887 8.907 3.142l-4.082 4.064c-1.671-1.663-3.86-1.552-5.01-1.552-2.263 0-3.191 1.294-3.191 2.439 0 .333.111.813.52 1.219.334.333.889.665 1.819.776l3.19.444c2.375.331 4.082 1.07 5.196 2.18 1.41 1.367 1.966 3.325 1.966 5.768 0 5.358-4.638 8.276-10.204 8.276m108.54-55.52h-2.01l-2.533 5.321-2.533-5.321h-2.01l3.621 7.123v4.981h1.836v-4.981l3.621-7.123m-11.1 8.687c0-1.53-.884-2.448-1.819-2.805.799-.306 1.632-1.258 1.632-2.567 0-2.057-1.394-3.315-3.655-3.315h-4.709v12.1h4.896c2.125 0 3.655-1.19 3.655-3.417m-2.023-5.304c0 1.139-.799 1.734-1.972 1.734h-2.72v-3.468h2.72c1.173 0 1.972.595 1.972 1.734m.187 5.219c0 1.088-.697 1.853-1.989 1.853h-2.89v-3.689h2.89c1.292 0 1.989.748 1.989 1.836m-14.86.051c0-1.054-.323-1.887-.986-2.482-.527-.476-1.139-.714-2.244-.901l-1.445-.221c-.663-.119-1-.272-1.326-.544-.323-.272-.442-.663-.442-1.122 0-1.105.765-1.887 2.193-1.887 1.037 0 1.921.204 2.669.935l1.156-1.156c-1.037-.969-2.125-1.377-3.757-1.377-2.516 0-4.046 1.428-4.046 3.536 0 1 .306 1.785.901 2.329.51.493 1.275.816 2.278.969l1.428.204c.595.085 1.037.255 1.326.51.323.272.476.697.476 1.258 0 1.207-.884 1.87-2.499 1.87-1.224 0-2.227-.289-3.111-1.173l-1.207 1.207c1.173 1.173 2.448 1.598 4.284 1.598 2.533 0 4.352-1.309 4.352-3.553m-10.456-7v-1.649h-8.5v1.649h3.332v10.455h1.836v-10.455h3.332m-10.541 10.455l-2.788-5.355c1.36-.391 2.414-1.462 2.414-3.213 0-2.057-1.462-3.536-3.757-3.536h-4.692v12.1h1.836v-5.1h2.295l2.55 5.1h2.142m-2.21-8.551c0 1.207-.833 1.887-2.057 1.887h-2.72v-3.791h2.72c1.224 0 2.057.697 2.057 1.904m-9.929 8.551v-1.649h-5.899v-3.638h5.03v-1.632h-5.03v-3.536h5.899v-1.649h-7.735v12.1h7.735m-12.819-3.621c-.289 1.241-1.122 2.091-2.482 2.091-.731 0-1.326-.255-1.785-.748-.629-.629-.731-1.394-.731-3.774 0-2.38.102-3.145.731-3.774.459-.493 1.054-.748 1.785-.748 1.36 0 2.176.85 2.448 2.091h1.87c-.425-2.397-2.074-3.723-4.318-3.723-1.343 0-2.329.425-3.128 1.224-1.19 1.19-1.224 2.397-1.224 4.93 0 2.533.034 3.74 1.224 4.93.799.799 1.785 1.224 3.128 1.224 2.227 0 3.893-1.326 4.318-3.723h-1.836m-10.354 3.621v-12.1h-1.836v8.5l-5.593-8.5h-1.683v12.1h1.836v-8.517l5.593 8.517h1.683m-12.632-6.05c0-2.533-.034-3.74-1.224-4.93-.799-.799-1.785-1.224-3.128-1.224-1.343 0-2.329.425-3.128 1.224-1.19 1.19-1.224 2.397-1.224 4.93 0 2.533.034 3.74 1.224 4.93.799.799 1.785 1.224 3.128 1.224 1.343 0 2.329-.425 3.128-1.224 1.19-1.19 1.224-2.397 1.224-4.93m-1.836 0c0 2.414-.119 3.111-.714 3.757-.459.476-1.071.765-1.802.765-.731 0-1.343-.289-1.802-.765-.595-.646-.714-1.36-.714-3.757 0-2.397.102-3.128.714-3.774.476-.493 1.071-.748 1.802-.748.731 0 1.326.255 1.802.748.595.646.714 1.36.714 3.774m-11.51 2.431c-.289 1.241-1.122 2.091-2.482 2.091-.731 0-1.326-.255-1.785-.748-.629-.629-.731-1.394-.731-3.774 0-2.38.102-3.145.731-3.774.459-.493 1.054-.748 1.785-.748 1.36 0 2.176.85 2.448 2.091h1.87c-.425-2.397-2.074-3.723-4.318-3.723-1.343 0-2.329.425-3.128 1.224-1.19 1.19-1.224 2.397-1.224 4.93 0 2.533.034 3.74 1.224 4.93.799.799 1.785 1.224 3.128 1.224 2.227 0 3.893-1.326 4.318-3.723h-1.836" fill="#fff"/></g></svg>