<svg viewBox="0 0 62 6" version="1.1" xmlns="http://www.w3.org/2000/svg">
 <g id="0" style="fill:none;fill-rule:evenodd">
  <path d="m58.16461.024771l3.83539 2.695059-3.83539 2.784962 0-5.480021m-1.490463-.024771l.732854 0 0 5.538462-.732854 0 0-5.538462m-48.971592 5.535729l.694815-2.02033-1.529966-2.547241 1.614996 0 .962147 1.626979 2.100687-1.626979 1.426324 0-3.264952 2.525729-.702423 2.041843-1.301628 0m9.515458-3.611748l-2.337765 0-.345001 1.00344 2.337765 0c.158524 0 .266483-.017518.324124-.0528.057642-.035176.10297-.100869.136019-.196939l.173173-.503786c.032908-.095123.032342-.160396-.001805-.196273-.034005-.035702-.129508-.0535-.28651-.053641m-4.866502 3.611748l1.571437-4.567572 4.082234 0c.390754 0 .653521.076064.787983.228401.134356.152338.14529.392511.032342.720451l-.353423 1.027543c-.11224.326117-.287218.564259-.525251.714004-.237856.14985-.552745.224863-.944738.224863l-.491388 0 1.527489 1.65231-1.703139 0-1.278027-1.65231-.850614 0-.568492 1.65231-1.286413 0m6.911882 0l1.571614-4.567572 1.296356 0-1.571437 4.567572-1.296533 0m8.179719-3.56126l-2.666737 0-.866785 2.519597 2.666596 0 .318852-.926954 1.22962.238562-.204559.59467c-.145679.423834-.338243.719049-.577232.885611-.239095.166562-.599878.249773-1.082137.249773l-2.752262 0c-.477836 0-.778889-.081845-.903267-.245674-.124554-.163689-.112807-.460271.034819-.889711l.792159-2.302022c.145821-.423553.336969-.717823.573905-.882739.23676-.164916.594747-.247426 1.073821-.247426l2.752298 0c.484736 0 .788832.082651.912538.247987.123705.165441.112771.45943-.032483.882178l-.17611.51188-1.37031.170241.277275-.805974m-27.443112 3.563993l1.902214-5.529983 1.479791 0-1.486832 4.322038 4.03411 0-.415346 1.207945-5.513937 0" style="fill:#d1d1d1"/>
  <path d="m29.851852 5.538462l1.985217-5.538462 5.913334 0-.40807 1.139085-4.369235 0-.429117 1.196914 2.362416 0-.422655 1.179404-2.362527 0-.725116 2.023059-1.544246 0m7.04249 0l1.639885-4.574691 1.35297 0-1.639885 4.574691-1.35297 0m3.227852 0l1.640032-4.574691.931238 0 2.700474 2.900892 1.039985-2.900892 1.252198 0-1.640069 4.574691-.940727 0-2.669345-2.946405-1.056306 2.946405-1.257479 0m9.641865-1.022969l1.324869 0c.762042 0 1.323577-.10022 1.684307-.300869.360767-.200544.628038-.543663.801996-1.02918.151175-.421336.143384-.732381-.023522-.933031-.166869-.200685-.504557-.301009-1.012992-.301009l-1.855828 0-.91883 2.56409m-1.735819 1.022969l1.640033-4.574691 3.2143 0c.917538 0 1.555952.197386 1.915538.592158.359438.394632.409362.954717.14944 1.679975-.274213.764455-.745315 1.339489-1.413418 1.724646-.668139.385333-1.52582.577911-2.573153.577911l-2.932739 0" style="fill:#f4f4f4"/>
 </g>
</svg>
