<?xml version="1.0" standalone="no"?>
<!DOCTYPE svg PUBLIC "-//W3C//DTD SVG 1.1//EN" "http://www.w3.org/Graphics/SVG/1.1/DTD/svg11.dtd">
<svg width="100%" height="100%" viewBox="0 0 560 560" version="1.1" xmlns="http://www.w3.org/2000/svg" xmlns:xlink="http://www.w3.org/1999/xlink" xml:space="preserve" style="fill-rule:evenodd;clip-rule:evenodd;stroke-linejoin:round;stroke-miterlimit:1.41421;">
    <g transform="matrix(0.452672,0,-1.2326e-32,0.452672,-5.68434e-14,226.996)">
        <path d="M1237.1,36.442L1231.8,67.896L1200.17,67.896C1184.75,67.896 1175.79,75.537 1173.37,90.813L1151.5,230.4L1098.01,230.4L1122.55,79.208C1124.44,66.696 1130.59,56.454 1140.91,48.446C1151.26,40.438 1162.78,36.442 1175.44,36.442L1237.1,36.442ZM904.429,36.442L898.779,67.896L844.371,67.896L828.317,165.821C828.263,167.458 828.213,169.033 828.213,170.663C828.213,177.917 830.887,184.175 836.313,189.438C841.683,194.683 848.004,197.304 855.246,197.304L877.017,197.304L871.771,230.4L827.821,230.4C812.775,230.4 800.046,225.137 789.721,214.654C779.363,204.2 774.183,191.429 774.183,176.367C774.183,173.113 774.463,169.896 775,166.667L802.4,3.783L855.542,3.783L850.067,36.442L904.429,36.442ZM173.771,97.858L151.638,230.4L54.017,230.4C38.983,230.4 26.2,225.137 15.754,214.654C5.292,204.2 0,191.429 0,176.367C0,174.192 0.271,171.5 0.821,168.292L4.871,143.317C12.933,114.792 30.533,100.554 57.675,100.554L120.171,100.554C121.5,92.383 119.433,84.904 113.925,78.108C108.383,71.312 101.504,67.896 93.175,67.896L33.417,67.896L38.675,36.442L120.563,36.442C135.083,36.442 147.646,41.717 158.279,52.2C168.896,62.687 174.225,75.229 174.225,89.775C174.225,93.554 174.05,96.258 173.771,97.858ZM377.833,36.442L372.208,67.896L287.092,67.896C272.3,67.896 263.596,75.187 260.888,89.721L327.421,130.129C344.929,140.642 353.638,155.9 353.638,175.829C353.638,193.325 347.15,207.333 334.275,217.842C323.817,226.229 312.204,230.4 299.604,230.4L183.879,230.4L189.112,197.304L274.213,197.304C289.525,197.304 298.542,189.529 301.25,173.879L233.854,136.296C216.658,126.596 208.071,111.792 208.071,91.833C208.071,75.912 213.129,62.713 223.196,52.2C233.275,41.717 246.25,36.442 262.1,36.442L377.833,36.442ZM756.683,36.442L751.063,67.896L674.196,67.896C659.421,67.896 650.646,75.187 647.983,89.721L714.55,130.129C731.996,140.642 740.7,155.9 740.7,175.829C740.7,193.325 734.283,207.333 721.375,217.842C710.904,226.229 699.333,230.4 686.713,230.4L570.967,230.4L576.217,197.304L661.304,197.304C676.592,197.304 685.621,189.529 688.308,173.879L620.988,136.296C603.746,126.596 595.15,111.792 595.15,91.833C595.15,75.912 600.196,62.713 610.304,52.2C620.383,41.717 633.313,36.442 649.208,36.442L756.683,36.442ZM1087.46,99.096L1072.58,184.833C1070.42,197.467 1064.18,208.196 1053.82,217.067C1043.47,225.958 1031.82,230.4 1018.95,230.4L967.313,230.4C952.258,230.4 939.596,225.137 929.246,214.654C918.854,204.2 913.704,191.429 913.704,176.367C913.704,173.113 913.958,169.896 914.496,166.667L929.029,78.387C931.158,65.9 937.363,55.771 947.558,48.029C957.758,40.308 969.196,36.442 981.875,36.442L1034.22,36.442C1049.08,36.442 1061.78,41.583 1072.38,51.796C1083.02,62.05 1088.3,74.579 1088.3,89.413C1088.3,92.913 1088.05,96.167 1087.46,99.096ZM571.358,36.442L545.975,186.421C543.783,198.558 537.483,208.896 527,217.479C516.546,226.079 505.108,230.4 492.742,230.4L440.342,230.4C425.267,230.4 412.567,225.283 402.188,215.1C391.867,204.871 386.688,192.221 386.688,177.162C386.688,174.192 386.996,171.108 387.508,167.879L409.279,36.442L463.217,36.442L442.183,165.833C441.792,167.458 441.538,169.062 441.538,170.704C441.538,178.483 444.229,184.904 449.608,189.879C454.992,194.821 461.575,197.304 469.363,197.304C483.888,197.304 492.379,189.787 494.771,174.779L516.975,36.442L571.358,36.442ZM114.021,132.821L82.613,132.821C76.975,132.821 71.496,134.775 66.1,138.646C60.742,142.554 57.675,147.192 56.854,152.579L54.271,168.671C53.204,175.95 55.458,182.533 61.092,188.438C66.721,194.375 73.258,197.304 80.713,197.304L102.8,197.304L114.021,132.821ZM984.446,166.263C984.446,166.263 983.825,170.167 983.825,171.754C983.825,179.329 985.833,185.238 990.971,190.071C996.1,194.913 1002.44,197.304 1010.02,197.304C1025.15,197.304 1034.1,189.529 1036.78,173.908L1049.54,98.558C1050.91,90.217 1052.56,81.496 1046.79,75.75C1040.98,69.963 1030.09,68.7 1021.78,68.7C1007.56,68.7 999.221,76.113 996.813,90.917L984.446,166.263Z" style="fill:white;"/>
    </g>
</svg>
