<?xml version="1.0" standalone="no"?>
<!DOCTYPE svg PUBLIC "-//W3C//DTD SVG 1.1//EN" "http://www.w3.org/Graphics/SVG/1.1/DTD/svg11.dtd">
<svg width="100%" height="100%" viewBox="0 0 560 560" version="1.1" xmlns="http://www.w3.org/2000/svg" xmlns:xlink="http://www.w3.org/1999/xlink" xml:space="preserve" style="fill-rule:evenodd;clip-rule:evenodd;stroke-linejoin:round;stroke-miterlimit:1.41421;">
    <g transform="matrix(0.19347,2.46519e-32,1.2326e-32,0.19347,0,178.275)">
        <path d="M1979.99,926.604C2054.95,926.604 2107.01,890.363 2107.7,769.617L2107.74,769.617L2107.74,726.492L2107.7,726.492C2107.01,605.742 2054.95,569.517 1979.99,569.517C1904.89,569.517 1878.9,581.35 1878.9,581.35L1878.9,914.75C1878.9,914.75 1904.48,926.42 1978.24,926.602L1979.99,926.604ZM2620.53,819.992C2446.59,819.992 2347.48,708.063 2347.48,541.371L2347.48,518.179C2347.48,517.438 2347.5,498.279 2347.5,497.533C2348.61,331.883 2440.02,216.371 2620.53,216.371L2621.45,216.371C2796.86,216.371 2893.61,335.358 2894.5,501.229L2894.5,534.196C2894.5,700.892 2796.85,819.992 2621.45,819.992L2620.53,819.992ZM1329.6,819.992C1155.69,819.992 1056.58,708.063 1056.58,541.371L1056.58,497.533C1057.68,331.883 1149.09,216.371 1329.6,216.371L1330.55,216.371C1505.93,216.371 1602.68,335.358 1603.57,501.229L1603.57,534.196C1603.57,700.892 1505.92,819.992 1330.55,819.992L1329.6,819.992ZM510.05,1.579L404.254,1.579C391.104,1.579 380.425,12.258 380.425,25.425L380.425,228.083C360.929,221.954 326.996,216.371 267.488,216.371C151.138,216.371 0.054,276.329 0.054,485.442L0,485.442L0,560.171L0.054,560.171C4.813,762.125 141.546,819.696 280.675,819.696C424.271,819.696 494.679,795.488 516.371,786.254C519.079,785.508 521.6,784.35 523.821,782.754C523.838,782.746 523.946,782.696 523.946,782.696L523.929,782.658C529.946,778.333 533.879,771.333 533.879,763.375L533.879,25.425C533.879,12.258 523.2,1.579 510.05,1.579ZM969.908,216.642L948.017,216.642C947.254,216.642 946.529,216.796 945.783,216.867C894.413,217.992 737.575,224.996 688.142,267.667C684.508,269.867 681.567,273.008 679.533,276.775L679.533,276.788C677.754,280.142 676.642,283.908 676.642,287.967L676.642,788.379C676.642,801.542 687.308,812.204 700.475,812.204L806.254,812.204C819.425,812.204 830.092,801.542 830.092,788.379L830.092,361C845.8,355.263 879.679,348.142 952,348.142L969.908,348.142C983.063,348.142 993.738,337.467 993.738,324.317L993.738,240.479C993.738,227.321 983.063,216.642 969.908,216.642ZM279.329,696.296C204.379,696.296 152.3,660.058 151.608,539.321L151.587,539.321L151.587,496.2L151.608,496.2C152.3,375.45 204.379,339.213 279.329,339.213C354.442,339.213 380.425,351.046 380.425,351.046L380.425,684.471C380.425,684.471 354.442,696.296 279.329,696.296ZM2498.22,528.596C2498.22,636.563 2542.69,689.358 2620.78,689.358L2621.2,689.358C2699.93,689.358 2743.79,632.767 2743.79,525.392L2743.79,510.575C2743.79,406.867 2699.93,347.904 2621.2,347.904L2620.78,347.904C2539.75,347.904 2498.22,405.908 2498.22,508.904L2498.22,528.596ZM1207.29,528.596C1207.29,636.563 1251.76,689.358 1329.86,689.358L1330.28,689.358C1409.02,689.358 1452.85,632.767 1452.85,525.392L1452.85,510.575C1452.85,406.867 1409.02,347.904 1330.28,347.904L1329.86,347.904C1248.82,347.904 1207.29,405.908 1207.29,508.904L1207.29,528.596ZM1991.83,446.658C1932.33,446.658 1898.38,452.242 1878.9,458.383L1878.9,255.721C1878.9,242.563 1868.23,231.883 1855.06,231.883L1749.28,231.883C1736.11,231.883 1725.43,242.563 1725.43,255.721L1725.43,993.679C1725.43,1001.63 1729.39,1008.64 1735.39,1012.95L1735.37,1012.98C1735.37,1012.98 1735.47,1013.04 1735.49,1013.04C1737.73,1014.64 1740.25,1015.8 1742.96,1016.55C1764.67,1025.81 1835.08,1050 1978.63,1050C2117.76,1050 2254.52,992.425 2259.25,790.458L2259.31,790.458L2259.31,715.733L2259.25,715.733C2259.25,506.621 2108.19,446.658 1991.83,446.658Z" style="fill:white;"/>
    </g>
</svg>
