<?xml version="1.0" standalone="no"?>
<!DOCTYPE svg PUBLIC "-//W3C//DTD SVG 1.1//EN" "http://www.w3.org/Graphics/SVG/1.1/DTD/svg11.dtd">
<svg width="100%" height="100%" viewBox="0 0 560 560" version="1.1" xmlns="http://www.w3.org/2000/svg" xmlns:xlink="http://www.w3.org/1999/xlink" xml:space="preserve" style="fill-rule:evenodd;clip-rule:evenodd;stroke-linejoin:round;stroke-miterlimit:1.41421;">
    <path d="M508.32,177.506C512.496,191.666 511.735,203.357 504.978,210.109C489.159,225.925 446.466,209.094 407.971,172.454C405.288,170.051 402.62,167.549 399.997,164.925C386.087,151 375.25,136.174 368.325,122.526C354.845,98.342 351.471,76.981 361.664,66.791C367.213,61.242 376.1,59.73 386.937,61.68C394.002,57.213 402.341,52.23 411.496,47.134C374.29,27.73 332.001,16.768 287.122,16.768C138.306,16.768 17.656,137.396 17.656,286.227C17.656,435.039 138.302,555.682 287.122,555.682C435.941,555.682 556.592,435.042 556.592,286.227C556.592,238.168 543.981,193.098 521.942,154.025C517.177,162.717 512.548,170.68 508.32,177.506ZM553.593,13.725C583.274,43.399 500.982,173.826 487.072,187.743C473.163,201.631 437.825,188.855 408.148,159.173C378.466,129.503 365.679,94.154 379.588,80.248C393.502,66.328 523.911,-15.953 553.593,13.725ZM137.316,45.124C92.003,19.414 27.514,-9.193 6.999,11.318C-13.785,32.098 15.867,98.037 41.847,143.438C64.967,103.24 97.872,69.393 137.316,45.124Z" style="fill:white;"/>
</svg>
