<?xml version="1.0" standalone="no"?>
<!DOCTYPE svg PUBLIC "-//W3C//DTD SVG 1.1//EN" "http://www.w3.org/Graphics/SVG/1.1/DTD/svg11.dtd">
<svg width="100%" height="100%" viewBox="0 0 560 560" version="1.1" xmlns="http://www.w3.org/2000/svg" xmlns:xlink="http://www.w3.org/1999/xlink" xml:space="preserve" style="fill-rule:evenodd;clip-rule:evenodd;stroke-linejoin:round;stroke-miterlimit:1.41421;">
    <g transform="matrix(2.55848,9.86076e-32,0,2.55848,-520.226,-138.189)">
        <g id="Layer1">
            <path d="M403.206,127.74C399.366,129.276 395.862,131.388 392.694,134.076C389.526,136.764 386.694,140.124 384.198,144.156C379.206,152.604 376.71,160.86 376.71,168.924C376.71,179.292 379.59,189.084 385.35,198.3C391.302,207.708 398.886,213.852 408.102,216.732C407.142,219.42 406.278,221.772 405.51,223.788C404.742,225.804 403.974,227.58 403.206,229.116C401.094,234.108 398.886,238.476 396.582,242.22C394.278,245.964 391.878,249.18 389.382,251.868C382.47,259.74 377.574,264.636 374.694,266.556C368.934,270.588 362.214,272.604 354.534,272.604C349.158,272.604 342.726,271.164 335.238,268.284C328.326,265.212 322.662,263.676 318.246,263.676C314.79,263.676 307.878,265.692 297.51,269.724C291.75,271.836 287.238,272.892 283.974,272.892C279.558,272.892 275.334,271.98 271.302,270.156C267.27,268.332 263.142,265.692 258.918,262.236C256.23,259.74 253.398,256.716 250.422,253.164C247.446,249.612 244.326,245.34 241.062,240.348C233.19,228.828 227.43,217.884 223.782,207.516C221.67,201.372 220.086,195.084 219.03,188.652C217.974,182.22 217.446,175.644 217.446,168.924C217.446,152.028 222.726,137.052 233.286,123.996C244.806,109.596 258.822,102.396 275.334,102.396C280.326,102.396 284.838,102.876 288.87,103.836C292.902,104.796 296.646,106.14 300.102,107.868C306.63,111.516 312.582,113.34 317.958,113.34C323.142,113.34 328.614,112.188 334.374,109.884C347.238,104.892 356.166,102.396 361.158,102.396C374.022,102.396 384.678,106.332 393.126,114.204C394.854,115.74 396.582,117.612 398.31,119.82C400.038,122.028 401.67,124.668 403.206,127.74ZM312.774,103.548C312.774,91.26 317.094,80.508 325.734,71.292C334.374,61.884 345.03,56.124 357.702,54.012C357.702,66.684 353.286,78.204 344.454,88.572C335.622,98.556 325.062,103.548 312.774,103.548Z" style="fill:white;fill-rule:nonzero;"/>
        </g>
    </g>
</svg>
