<?xml version="1.0" standalone="no"?>
<!DOCTYPE svg PUBLIC "-//W3C//DTD SVG 1.1//EN" "http://www.w3.org/Graphics/SVG/1.1/DTD/svg11.dtd">
<svg width="100%" height="100%" viewBox="0 0 560 560" version="1.1" xmlns="http://www.w3.org/2000/svg" xmlns:xlink="http://www.w3.org/1999/xlink" xml:space="preserve" style="fill-rule:evenodd;clip-rule:evenodd;stroke-linejoin:round;stroke-miterlimit:1.41421;">
    <g transform="matrix(1.01801,0,0,1.01801,0,-5.04208)">
        <path d="M528.587,286.173C538.273,284.45 543.541,276.279 543.541,266.845C543.541,252.247 533.29,245.803 519.795,245.803L493.196,245.803L493.196,314.212L510.999,314.212L510.999,287.899L511.174,287.899L527.971,314.212L550.094,314.212L528.587,286.173ZM371.169,260.868L371.169,245.803L332.248,245.803L332.248,314.212L371.169,314.212L371.169,299.141L350.004,299.141L350.004,287.35L370.049,287.35L370.049,272.296L350.004,272.296L350.004,260.868L371.169,260.868ZM194.264,260.868L208.937,260.868L208.937,245.803L161.785,245.803L161.785,260.868L176.458,260.868L176.458,314.212L194.264,314.212L194.264,260.868ZM135.913,260.868L135.913,245.803L96.992,245.803L96.992,314.212L135.913,314.212L135.913,299.141L114.802,299.141L114.802,287.35L134.847,287.35L134.847,272.296L114.802,272.296L114.802,260.868L135.913,260.868ZM444.532,302.184L448.953,314.059L467.936,314.059L442.178,245.671L422.745,245.671L396.426,314.059L415.301,314.059L420.059,302.184L444.532,302.184ZM303.693,276.021C303.525,285.99 302.795,294.515 296.744,303.052C290.029,312.39 279.946,316.47 268.521,316.47C247.017,316.47 232.065,301.863 232.065,280.371C232.065,258.14 247.131,243.53 269.137,243.53C283.197,243.53 294.111,249.882 299.995,262.681L283.134,269.76C280.672,263.225 275.521,258.866 268.353,258.866C256.652,258.866 250.547,270.024 250.547,280.455C250.547,291.069 256.929,301.863 268.635,301.863C276.305,301.863 282.236,297.868 282.969,289.988L268.407,289.988L268.407,276.021L303.693,276.021ZM424.933,288.574L439.714,288.574L432.264,266.803L424.933,288.574ZM0,314.212L17.806,314.212L17.806,272.296L17.977,272.296L50.51,314.212L68.32,314.212L68.32,245.803L50.51,245.803L50.51,287.62L50.345,287.62L17.806,245.803L0,245.803L0,314.212ZM510.999,259.413L512.74,259.413C518.51,259.413 525.06,260.493 525.06,267.946C525.06,275.379 518.51,276.459 512.74,276.459L510.999,276.459L510.999,259.413Z" style="fill:white;"/>
    </g>
</svg>
