<?xml version="1.0" standalone="no"?>
<!DOCTYPE svg PUBLIC "-//W3C//DTD SVG 1.1//EN" "http://www.w3.org/Graphics/SVG/1.1/DTD/svg11.dtd">
<svg width="100%" height="100%" viewBox="0 0 560 560" version="1.1" xmlns="http://www.w3.org/2000/svg" xmlns:xlink="http://www.w3.org/1999/xlink" xml:space="preserve" style="fill-rule:evenodd;clip-rule:evenodd;stroke-linejoin:round;stroke-miterlimit:1.41421;">
    <g transform="matrix(0.339631,0,0,0.339631,0,227.355)">
        <path d="M323.176,306.532L408.308,306.532C408.149,306.211 407.986,305.892 407.823,305.574C407.312,304.583 406.786,303.6 406.242,302.627C404.496,299.505 402.585,296.476 400.551,293.534C398.184,290.11 395.65,286.804 392.982,283.61C389.176,279.052 385.1,274.723 380.819,270.609C375.32,265.324 369.483,260.395 363.403,255.793C355.995,250.184 348.224,245.06 340.208,240.363C331.296,235.142 322.078,230.448 312.661,226.208C301.447,221.158 289.949,216.75 278.279,212.874C264.984,208.458 251.463,204.732 237.817,201.566C227.661,199.209 217.435,197.164 207.163,195.387C202.504,194.581 197.836,193.834 193.161,193.132L192.973,193.104C193.716,193.56 194.457,194.019 195.198,194.478C196.213,195.108 197.226,195.74 198.239,196.373C200.487,197.784 202.73,199.202 204.966,200.632C211.391,204.745 217.761,208.944 224.069,213.234C230.591,217.669 237.046,222.202 243.42,226.847C249.953,231.607 256.401,236.486 262.733,241.511C268.888,246.395 274.935,251.418 280.822,256.623C285.605,260.852 290.283,265.201 294.803,269.71C298.779,273.675 302.634,277.765 306.3,282.019C309.176,285.357 311.937,288.797 314.518,292.368C316.762,295.473 318.873,298.679 320.773,302.007C321.394,303.095 321.99,304.197 322.564,305.311C322.771,305.717 322.975,306.123 323.176,306.532ZM311.079,297.844C302.528,299.158 293.165,299.821 282.992,299.833L282.992,299.921L95.933,299.921C31.954,299.921 0,274.271 0,223.004L0,80.912C0,29.321 31.954,3.512 95.933,3.512L282.742,3.512L282.742,3.483C283.088,3.483 283.4,3.512 283.75,3.512L293.071,3.512L293.071,3.754C350.096,6.425 378.638,32.117 378.638,80.912L378.638,223.004C378.638,235.42 376.757,246.331 372.997,255.737C372.038,254.955 371.072,254.182 370.099,253.418C362.194,247.206 353.856,241.555 345.228,236.398C334.926,230.24 324.21,224.786 313.238,219.927C300.01,214.069 286.407,209.074 272.596,204.776L272.596,74.004L117.454,74.004L117.454,227.8L234.537,227.8C239.432,231.294 244.28,234.851 249.075,238.481C257.064,244.529 264.906,250.777 272.511,257.302C277.795,261.835 282.965,266.502 287.96,271.352C292.558,275.815 297.011,280.434 301.218,285.27C304.356,288.877 307.359,292.607 310.136,296.501C310.453,296.946 310.768,297.394 311.079,297.844ZM1231.82,298.875L1120.5,298.875L1120.5,221.217L964.663,221.217L964.663,298.875L853.4,298.875L853.4,70.717C853.4,51.254 860.7,35.792 875.425,24.225C889.775,12.992 910.288,7.396 936.958,7.396L1148.76,7.396C1175.43,7.396 1195.92,12.992 1210.27,24.225C1224.65,35.442 1231.82,50.996 1231.82,70.717L1231.82,298.875ZM1630.92,22.004C1619.68,13.079 1602.39,8.304 1579.19,7.546L1579.59,7.45L1575.24,7.45C1574.31,7.429 1573.46,7.396 1572.46,7.396L1374.37,7.396L1374.28,7.45L1367.82,7.45C1341.15,7.45 1320.65,13.004 1306.29,24.267C1291.93,35.442 1284.66,50.542 1284.28,69.354L1284.25,69.354L1284.25,70.05C1284.25,70.346 1284.22,70.533 1284.22,70.783L1284.25,70.783L1284.25,298.875L1395.57,298.875L1395.57,222.737L1575.53,222.737C1624.4,222.737 1648.85,203.162 1648.85,163.825L1648.85,70.346C1648.85,47.887 1642.87,31.817 1630.92,22.004ZM421.921,298.875L421.921,42.637L422.083,42.558C422.217,31.929 425.258,23.325 431.383,16.925C437.467,10.617 446.154,7.396 457.467,7.396L547.371,7.396C557.642,7.396 565.375,10.021 571.254,15.317C571.488,15.396 571.642,15.612 571.817,15.879C572.217,16.187 572.608,16.521 572.967,16.875L572.9,16.875C572.996,17.004 573.125,17.083 573.179,17.212C596.333,48.896 668.667,148.321 687.454,177.375C688.992,179.004 691.175,179.462 691.175,179.462C694.579,180.062 696.175,178.729 696.904,176.95L696.904,7.396L803.458,7.396L803.458,298.875L694.242,298.875C694.242,298.875 561.283,153.071 540.996,120.671C539.675,118.342 536.592,118.112 536.592,118.112C528.567,117.146 526.65,120.983 526.2,123.629C526.483,163.517 527.067,298.875 527.067,298.875L421.921,298.875ZM1120.5,167.537L1120.5,83.179L964.663,83.179L964.663,167.537L1120.5,167.537ZM1535.59,158.721L1394.02,158.721L1394.02,83.179L1535.59,83.179L1535.59,158.721Z" style="fill:white;"/>
    </g>
</svg>
