<?xml version="1.0" standalone="no"?>
<!DOCTYPE svg PUBLIC "-//W3C//DTD SVG 1.1//EN" "http://www.w3.org/Graphics/SVG/1.1/DTD/svg11.dtd">
<svg width="100%" height="100%" viewBox="0 0 560 560" version="1.1" xmlns="http://www.w3.org/2000/svg" xmlns:xlink="http://www.w3.org/1999/xlink" xml:space="preserve" style="fill-rule:evenodd;clip-rule:evenodd;stroke-linejoin:round;stroke-miterlimit:1.41421;">
    <path d="M0,219.188L0,244.033L37.426,244.033L37.585,340.863L67.049,340.863L67.049,244.033L104.952,244.033L104.952,219.188L0,219.188ZM282.687,340.703L282.687,318.566L250.198,318.566C245.777,318.566 239.166,318.796 235.546,315.807C232.427,313.231 232.891,310.189 231.883,306.781L282.687,306.781L282.687,284.485L231.883,284.485C232.908,281.012 232.513,278.072 235.705,275.481C239.558,272.354 246.149,272.54 250.835,272.54L282.687,272.54L282.687,250.403L253.064,250.403C241.902,250.403 230.18,250.667 220.416,256.884C206.337,265.848 202.039,282.212 202.732,298.022C203.367,312.548 207.772,327.05 221.212,334.743C231.295,340.514 242.588,340.703 253.861,340.703L282.687,340.703ZM367.413,340.703L367.413,318.089L341.454,318.089C335.875,318.089 329.619,318.292 324.572,315.485C321.522,313.789 319.345,310.63 317.845,307.577C316.896,305.647 316.297,303.628 315.877,301.525C314.174,292.996 315.463,280.78 323.776,276.024C327.926,273.649 332.537,273.638 337.154,273.322C347.158,272.637 357.378,273.177 367.413,273.177L367.413,250.403L339.702,250.403C328.539,250.403 317.192,250.655 307.213,256.364C299.989,260.495 295.184,267.393 291.948,274.929C283.325,295.008 288.1,322.74 307.531,334.801C316.69,340.486 327.675,340.703 338.109,340.703L367.413,340.703ZM377.447,250.403L377.447,303.118C377.447,313.076 377.959,324.478 385.57,331.938C393.591,339.799 405.701,340.703 416.306,340.703L459.466,340.703L459.466,250.403L432.71,250.403L432.71,317.452C426.558,317.452 420.197,317.904 414.076,317.319C411.552,317.078 408.757,316.966 406.757,315.174C405.36,313.922 404.803,311.913 404.508,310.126C403.839,306.079 404.202,301.795 404.202,297.703L404.202,250.403L377.447,250.403ZM474.118,318.566L474.118,340.703L519.984,340.703C527.681,340.703 536.592,341.964 543.873,339.015C555.383,334.352 560.476,321.817 559.965,310.126C559.718,304.491 558.624,298.932 555.074,294.359C546.125,282.827 531.278,283.848 518.233,283.848C514.371,283.848 510.276,284.23 506.447,283.733C504.928,283.536 503.093,283.319 501.857,282.313C499.778,280.618 499.693,275.643 501.988,274.127C504.321,272.587 507.61,272.82 510.27,272.567C515.219,272.096 520.426,272.54 525.399,272.54L555.499,272.54L555.499,250.403L513.136,250.403C504.367,250.403 494.893,249.726 486.699,253.478C484.105,254.666 481.746,256.225 479.698,258.221C473.057,264.691 472.38,275.171 472.988,283.848C473.356,289.101 474.571,294.983 478.273,298.977C481.673,302.647 486.659,304.264 491.477,305.069C499.969,306.487 508.693,305.985 517.277,305.985C520.258,305.985 523.224,306.003 526.196,306.138C528.016,306.22 530.249,306.413 531.763,307.544C534.294,309.433 534.386,314.073 532.085,316.148C530.195,317.853 527.377,318.384 524.921,318.552C519.298,318.937 513.518,318.566 507.881,318.566L474.118,318.566ZM110.049,219.029L110.049,340.863L136.804,340.863L136.804,273.496C142.858,273.496 149.102,272.894 155.119,273.469C157.855,273.73 160.627,274.138 162.75,276.092C164.223,277.448 164.758,279.552 165.059,281.459C165.694,285.49 165.471,289.651 165.471,293.722L165.471,340.863L192.386,340.863L192.227,285.918C192.227,275.676 191.225,263.97 182.353,257.235C177.874,253.836 172.377,252.21 166.905,251.293C157.062,249.642 146.757,250.403 136.804,250.403L136.804,219.029L110.049,219.029Z" style="fill:white;"/>
</svg>
