<?xml version="1.0" standalone="no"?>
<!DOCTYPE svg PUBLIC "-//W3C//DTD SVG 1.1//EN" "http://www.w3.org/Graphics/SVG/1.1/DTD/svg11.dtd">
<svg width="100%" height="100%" viewBox="0 0 560 560" version="1.1" xmlns="http://www.w3.org/2000/svg" xmlns:xlink="http://www.w3.org/1999/xlink" xml:space="preserve" style="fill-rule:evenodd;clip-rule:evenodd;stroke-linejoin:round;stroke-miterlimit:1.41421;">
    <g transform="matrix(1.2125,0,0,1.2125,-79.1056,-14.9318)">
        <path d="M414.458,191.199L423.53,191.199L423.53,295.023L414.458,295.023L414.458,191.199ZM156.189,234.773C160.194,221.948 169.105,215.535 182.922,215.535C194.058,215.535 201.858,218.391 206.322,224.103C210.786,229.815 213.57,234.495 214.674,238.143C215.778,241.791 216.33,246.063 216.33,250.959L216.33,295.023L206.97,295.023L206.97,251.967C206.97,248.895 206.538,245.295 205.674,241.167C204.81,237.039 202.17,233.199 197.754,229.647C193.338,226.095 188.298,224.319 182.634,224.319C179.274,224.319 175.77,225.159 172.122,226.839C168.474,228.519 165.138,231.159 162.114,234.759C159.09,238.359 157.578,244.095 157.578,251.967L157.578,295.023L148.506,295.023L148.506,217.119L157.29,217.119L157.29,225.327L157.146,228.495C157.146,230.211 156.827,232.303 156.189,234.773C155.965,235.492 156.006,235.481 156.189,234.773ZM353.418,190.311L404.106,295.023L394.026,295.023L374.154,252.255L332.682,252.255L312.954,295.023L303.018,295.023L353.418,190.311ZM440.41,191.199L469.498,191.199C478.234,191.199 486.49,192.231 494.266,194.295C502.042,196.359 509.458,202.095 516.514,211.503C523.57,220.911 527.098,231.375 527.098,242.895C527.098,251.631 525.058,259.959 520.978,267.879C516.898,275.799 512.002,281.679 506.29,285.519C500.578,289.359 495.202,291.903 490.162,293.151C485.122,294.399 478.138,295.023 469.21,295.023L440.41,295.023L440.41,191.199ZM242.57,244.376L242.57,295.023L233.066,295.023L233.066,191.199L263.594,191.199C266.186,191.199 269.69,191.495 274.106,192.088C278.906,192.596 283.658,195.198 288.362,199.896C293.066,204.594 295.418,210.329 295.418,217.101C295.418,225.057 292.586,231.533 286.922,236.527C281.258,241.521 273.866,244.018 264.746,244.018L295.482,295.023L285.39,295.023L254.872,244.376L242.57,244.376ZM125.266,283.647C119.602,291.999 108.442,296.175 97.786,296.175C87.418,296.175 79.954,293.367 75.394,287.751C70.834,282.135 68.002,277.527 66.898,273.927C65.794,270.327 65.242,265.551 65.242,259.599L65.242,217.119L74.314,217.119L74.314,259.743C74.314,267.999 76.474,274.623 80.794,279.615C85.114,284.607 91.114,287.103 98.794,287.103C105.802,287.103 111.61,284.655 116.218,279.759C120.826,274.863 123.13,268.383 123.13,260.319L123.13,217.119L131.914,217.119C131.914,217.119 132.156,248.48 132.221,260.337C132.289,272.843 129.959,276.726 125.266,283.647ZM449.77,286.527L468.922,286.527C477.082,286.527 483.082,286.095 486.922,285.231C490.762,284.367 495.178,282.207 500.17,278.751C505.162,275.295 509.362,270.327 512.77,263.847C516.178,257.367 517.882,250.431 517.882,243.039C517.882,232.479 514.594,223.239 508.018,215.319C501.442,207.399 495.082,202.911 488.938,201.855L476.41,200.127L468.346,199.839L449.77,199.839L449.77,286.527ZM337.146,243.327L369.978,243.327L353.418,211.047L337.146,243.327ZM242.57,237.273L258.792,237.273C264.822,237.16 269.662,236.424 273.314,235.067C277.298,233.586 280.466,231.237 282.818,228.02C285.17,224.803 286.346,221.291 286.346,217.482C286.346,214.434 285.578,211.556 284.042,208.848C282.602,205.97 280.49,203.811 277.706,202.372C275.114,200.849 272.474,199.833 269.786,199.325C267.098,198.817 262.826,198.563 256.97,198.563L242.57,198.563L242.57,237.273Z" style="fill:white;"/>
    </g>
</svg>
