<?xml version="1.0" standalone="no"?>
<!DOCTYPE svg PUBLIC "-//W3C//DTD SVG 1.1//EN" "http://www.w3.org/Graphics/SVG/1.1/DTD/svg11.dtd">
<svg width="100%" height="100%" viewBox="0 0 560 560" version="1.1" xmlns="http://www.w3.org/2000/svg" xmlns:xlink="http://www.w3.org/1999/xlink" xml:space="preserve" style="fill-rule:evenodd;clip-rule:evenodd;stroke-linejoin:round;stroke-miterlimit:1.41421;">
    <g transform="matrix(6.97315,1.97215e-31,0,6.97315,-59.2927,-389.423)">
        <path d="M88.811,114.492C88.811,117.252 86.572,119.491 83.812,119.491L13.501,119.491C10.742,119.491 8.503,117.252 8.503,114.492L8.503,77.508C8.503,74.747 10.742,72.509 13.501,72.509L83.812,72.509C86.572,72.509 88.811,74.747 88.811,77.508L88.811,114.492ZM70.236,83.389L56.595,83.389L54.819,88.72L67.126,88.724C70.52,88.814 72.189,91.59 71.04,95.023C69.874,98.511 66.467,101.154 62.59,101.338C61.595,101.385 61.249,101.495 59.833,101.382L63.19,91.475L54.008,91.152L48.348,108.131L61.989,108.131C68.848,108.131 76.363,102.716 78.681,95.761C80.997,88.803 77.127,83.389 70.236,83.389ZM45.159,90.84L42.442,99.37L41.529,90.712L31.552,90.361L27.067,98.836L28.341,90.249L21.416,90.005L19.404,108.131L28.92,108.131L36.191,93.421L37.672,108.131L46.224,108.131L52.095,91.084L45.159,90.84ZM52.91,88.719L54.746,83.389L47.533,83.389L45.835,88.717L52.91,88.719ZM41.319,88.715L40.757,83.389L35.242,83.389L32.425,88.713L41.319,88.715ZM28.57,88.711L29.373,83.3L22.16,83.3L21.559,88.708L28.57,88.711Z" style="fill:white;"/>
    </g>
</svg>
