<?xml version="1.0" encoding="UTF-8" standalone="no"?>
<svg width="945px" height="360px" viewBox="0 0 945 360" version="1.1" xmlns="http://www.w3.org/2000/svg" xmlns:xlink="http://www.w3.org/1999/xlink">
    <!-- Generator: Sketch 3.8.3 (29802) - http://www.bohemiancoding.com/sketch -->
    <title>PLAY MEDIA ICONS</title>
    <desc>Created with Sketch.</desc>
    <defs>
        <polyline id="path-1" points="196 172 196 186 81 186 81 172"></polyline>
        <mask id="mask-2" maskContentUnits="userSpaceOnUse" maskUnits="objectBoundingBox" x="0" y="0" width="115" height="14" fill="white">
            <use xlink:href="#path-1"></use>
        </mask>
        <path d="M6.52229299,173 C2.92035669,173 0,170.631192 0,167.709529 L0,5.29047072 C0,2.36880827 2.92035669,0 6.52229299,0 L269.477707,0 C273.079643,0 276,2.36880827 276,5.29047072 L276,167.709529 C276,170.631192 273.079643,173 269.477707,173 L6.52229299,173 Z" id="path-3"></path>
        <mask id="mask-4" maskContentUnits="userSpaceOnUse" maskUnits="objectBoundingBox" x="0" y="0" width="276" height="173" fill="white">
            <use xlink:href="#path-3"></use>
        </mask>
        <polygon id="path-5" points="13 160.184713 262.910828 160.184713 262.910828 13 13 13"></polygon>
        <mask id="mask-6" maskContentUnits="userSpaceOnUse" maskUnits="objectBoundingBox" x="0" y="0" width="249.910828" height="147.184713" fill="white">
            <use xlink:href="#path-5"></use>
        </mask>
        <rect id="path-7" x="0" y="0" width="192" height="140" rx="6"></rect>
        <mask id="mask-8" maskContentUnits="userSpaceOnUse" maskUnits="objectBoundingBox" x="0" y="0" width="192" height="140" fill="white">
            <use xlink:href="#path-7"></use>
        </mask>
        <rect id="path-9" x="20" y="11" width="152" height="118"></rect>
        <mask id="mask-10" maskContentUnits="userSpaceOnUse" maskUnits="objectBoundingBox" x="0" y="0" width="152" height="118" fill="white">
            <use xlink:href="#path-9"></use>
        </mask>
        <circle id="path-11" cx="12" cy="70" r="6"></circle>
        <mask id="mask-12" maskContentUnits="userSpaceOnUse" maskUnits="objectBoundingBox" x="0" y="0" width="12" height="12" fill="white">
            <use xlink:href="#path-11"></use>
        </mask>
        <rect id="path-13" x="0" y="18" width="72" height="84"></rect>
        <mask id="mask-14" maskContentUnits="userSpaceOnUse" maskUnits="objectBoundingBox" x="0" y="0" width="72" height="84" fill="white">
            <use xlink:href="#path-13"></use>
        </mask>
        <circle id="path-15" cx="36" cy="109" r="5"></circle>
        <mask id="mask-16" maskContentUnits="userSpaceOnUse" maskUnits="objectBoundingBox" x="0" y="0" width="10" height="10" fill="white">
            <use xlink:href="#path-15"></use>
        </mask>
        <rect id="path-17" x="0" y="0" width="72" height="120" rx="8.4"></rect>
        <mask id="mask-18" maskContentUnits="userSpaceOnUse" maskUnits="objectBoundingBox" x="0" y="0" width="72" height="120" fill="white">
            <use xlink:href="#path-17"></use>
        </mask>
        <path d="M159.594511,207.477124 C159.100917,205.007477 156.945832,197.745098 156.248106,186.03268 L99.3592173,186.03268 C98.6614918,197.745098 96.5064068,205.007477 96.012812,207.477124 C95.0373349,212.357856 91.2235833,216.305569 83.9735964,218.535948 C78.0608693,220.354933 78.8151127,229.228758 85.646799,229.228758 L169.960524,229.228758 C176.792211,229.228758 177.548498,220.356392 171.633727,218.535948 C164.38374,216.305569 160.569989,212.357856 159.594511,207.477124 Z" id="path-19"></path>
        <mask id="mask-20" maskContentUnits="userSpaceOnUse" maskUnits="objectBoundingBox" x="0" y="0" width="95.6326354" height="43.1960784" fill="white">
            <use xlink:href="#path-19"></use>
        </mask>
        <path d="M256,147.5 L256,179.063779 C256,184.591109 251.529594,189.071895 246.003817,189.071895 L9.99618346,189.071895 C4.47544378,189.071895 0,184.59642 0,179.063779 L0,147.5 L0,10.0030789 C0,4.47853099 4.47040605,0 9.99618346,0 L246.003817,0 C251.524556,0 256,4.48476772 256,10.0030789 L256,147.5 Z" id="path-21"></path>
        <mask id="mask-22" maskContentUnits="userSpaceOnUse" maskUnits="objectBoundingBox" x="0" y="0" width="256" height="189.071895" fill="white">
            <use xlink:href="#path-21"></use>
        </mask>
        <circle id="path-23" cx="55" cy="55" r="55"></circle>
        <mask id="mask-24" maskContentUnits="userSpaceOnUse" maskUnits="objectBoundingBox" x="0" y="0" width="110" height="110" fill="white">
            <use xlink:href="#path-23"></use>
        </mask>
    </defs>
    <g id="Screens-1-9" stroke="none" stroke-width="1" fill="none" fill-rule="evenodd">
        <g id="01---HOW-PLEX-WORKS" transform="translate(-1069.000000, -1334.000000)">
            <g id="How-Plex-Works-03-(Grey/Coloured-Icons)" transform="translate(0.000000, 1.000000)">
                <g id="04---PLAY-YOUR-MEDIA" transform="translate(906.000000, 1215.000000)">
                    <g id="PLAY-MEDIA-ICONS" transform="translate(163.000000, 118.000000)">
                        <g id="icon-tv" transform="translate(669.000000, 87.000000)">
                            <use id="Rectangle-255" stroke="#BBBBBB" mask="url(#mask-2)" stroke-width="6" xlink:href="#path-1"></use>
                            <use id="Fill-3" stroke="#BBBBBB" mask="url(#mask-4)" stroke-width="6" xlink:href="#path-3"></use>
                            <use id="Fill-5" stroke="#BBBBBB" mask="url(#mask-6)" stroke-width="4" xlink:href="#path-5"></use>
                            <polygon id="plex-logo" fill="#F8AD18" points="137.042373 120.75 117 120.75 139.18977 86.375 117 52 137.042373 52 159.232143 86.375"></polygon>
                        </g>
                        <g id="phone-+-tablet" transform="translate(397.000000, 0.000000)">
                            <g id="icon-ipad" transform="translate(0.000000, 220.000000)">
                                <use id="Rectangle-668" stroke="#BBBBBB" mask="url(#mask-8)" stroke-width="6" xlink:href="#path-7"></use>
                                <use id="Rectangle-668" stroke="#BBBBBB" mask="url(#mask-10)" stroke-width="4" xlink:href="#path-9"></use>
                                <use id="button-left" stroke="#BBBBBB" mask="url(#mask-12)" stroke-width="4" xlink:href="#path-11"></use>
                                <circle id="isight-right" fill="#BBBBBB" cx="180" cy="70" r="2"></circle>
                                <polygon id="plex-logo" fill="#F8AD18" points="94.5806452 102 76 102 96.6451613 71.0322581 76 38 94.5806452 38 115.225806 71.0322581"></polygon>
                            </g>
                            <g id="icon-phone" transform="translate(60.000000, 0.000000)">
                                <rect id="Rectangle-247" x="0" y="0" width="72" height="120" rx="8.4"></rect>
                                <use id="Rectangle-247" stroke="#BBBBBB" mask="url(#mask-14)" stroke-width="4" xlink:href="#path-13"></use>
                                <use id="Oval-5" stroke="#BBBBBB" mask="url(#mask-16)" stroke-width="4" xlink:href="#path-15"></use>
                                <rect id="Rectangle-249" fill="#BBBBBB" x="31" y="10" width="10.8" height="2.4" rx="1.2"></rect>
                                <use id="Rectangle-247" stroke="#BBBBBB" mask="url(#mask-18)" stroke-width="6" xlink:href="#path-17"></use>
                                <g id="plex" transform="translate(24.000000, 41.000000)" fill="#F8AD18">
                                    <polygon id="Fill-5" points="11.0322581 38 0 38 12.2580645 19.6129032 0 0 11.0322581 0 23.2903226 19.6129032"></polygon>
                                </g>
                            </g>
                        </g>
                        <g id="Wifi-Waves---Right" transform="translate(288.000000, 98.000000)" stroke="#BBBBBB" stroke-width="4" stroke-linecap="round" stroke-linejoin="round">
                            <path d="M42.5981354,85.2539848 C53.3550379,74.4100185 60,59.4810163 60,43 C60,26.2772553 53.158684,11.1523856 42.1221726,0.271511557" id="outer"></path>
                            <path d="M31.9884721,74.650245 C40.032695,66.5205977 45,55.340387 45,43 C45,30.4769435 39.8845487,19.1486647 31.6292301,10.9907473" id="middle"></path>
                            <path d="M21.5021045,63.9203384 C26.7610108,58.5161135 30,51.13631 30,43 C30,34.6235575 26.5670004,27.0489349 21.0312282,21.6063596" id="inner"></path>
                        </g>
                        <g id="icon-computer-imac" transform="translate(0.000000, 65.000000)">
                            <use id="foot" stroke="#BBBBBB" mask="url(#mask-20)" stroke-width="6" xlink:href="#path-19"></use>
                            <use id="Combined-Shape" stroke="#BBBBBB" mask="url(#mask-22)" stroke-width="6" xlink:href="#path-21"></use>
                            <path d="M1.5,147.5 L254.697556,147.5" id="Line" stroke="#BBBBBB" stroke-width="3" stroke-linecap="square"></path>
                            <g id="pms" transform="translate(73.000000, 21.000000)">
                                <use id="Oval-5" stroke="#F8AD18" mask="url(#mask-24)" stroke-width="6" fill="#1F1F1F" xlink:href="#path-23"></use>
                                <polygon id="plex-arrow" fill="#F8AD18" points="56.3816586 89.375 36.3392857 89.375 58.5290557 55 36.3392857 20.625 56.3816586 20.625 78.5714286 55"></polygon>
                            </g>
                        </g>
                    </g>
                </g>
            </g>
        </g>
    </g>
</svg>