<?xml version="1.0" encoding="UTF-8" standalone="no"?>
<svg width="810px" height="230px" viewBox="0 0 810 230" version="1.1" xmlns="http://www.w3.org/2000/svg" xmlns:xlink="http://www.w3.org/1999/xlink">
    <!-- Generator: Sketch 3.8.3 (29802) - http://www.bohemiancoding.com/sketch -->
    <title>PMS → Computer</title>
    <desc>Created with Sketch.</desc>
    <defs>
        <path d="M159.594511,207.477124 C159.100917,205.007477 156.945832,197.745098 156.248106,186.03268 L99.3592173,186.03268 C98.6614918,197.745098 96.5064068,205.007477 96.012812,207.477124 C95.0373349,212.357856 91.2235833,216.305569 83.9735964,218.535948 C78.0608693,220.354933 78.8151127,229.228758 85.646799,229.228758 L169.960524,229.228758 C176.792211,229.228758 177.548498,220.356392 171.633727,218.535948 C164.38374,216.305569 160.569989,212.357856 159.594511,207.477124 Z" id="path-1"></path>
        <mask id="mask-2" maskContentUnits="userSpaceOnUse" maskUnits="objectBoundingBox" x="0" y="0" width="95.6326354" height="43.1960784" fill="white">
            <use xlink:href="#path-1"></use>
        </mask>
        <path d="M256,147.5 L256,179.063779 C256,184.591109 251.529594,189.071895 246.003817,189.071895 L9.99618346,189.071895 C4.47544378,189.071895 0,184.59642 0,179.063779 L0,147.5 L0,10.0030789 C0,4.47853099 4.47040605,0 9.99618346,0 L246.003817,0 C251.524556,0 256,4.48476772 256,10.0030789 L256,147.5 Z" id="path-3"></path>
        <mask id="mask-4" maskContentUnits="userSpaceOnUse" maskUnits="objectBoundingBox" x="0" y="0" width="256" height="189.071895" fill="white">
            <use xlink:href="#path-3"></use>
        </mask>
        <circle id="path-5" cx="110" cy="110" r="110"></circle>
        <mask id="mask-6" maskContentUnits="userSpaceOnUse" maskUnits="objectBoundingBox" x="0" y="0" width="220" height="220" fill="white">
            <use xlink:href="#path-5"></use>
        </mask>
    </defs>
    <g id="Screens-1-9" stroke="none" stroke-width="1" fill="none" fill-rule="evenodd">
        <g id="01---HOW-PLEX-WORKS" transform="translate(-1137.000000, -486.000000)">
            <g id="How-Plex-Works-03-(Grey/Coloured-Icons)" transform="translate(0.000000, 1.000000)">
                <g id="02---INSTALL-PMS" transform="translate(906.000000, 367.000000)">
                    <g id="PMS-→-Computer" transform="translate(231.000000, 118.000000)">
                        <g id="icon-computer-imac" transform="translate(553.000000, 0.000000)" stroke="#BBBBBB">
                            <use id="foot" mask="url(#mask-2)" stroke-width="6" xlink:href="#path-1"></use>
                            <use id="Combined-Shape" mask="url(#mask-4)" stroke-width="6" xlink:href="#path-3"></use>
                            <path d="M1.5,147.5 L254.697556,147.5" id="Line" stroke-width="3" stroke-linecap="square"></path>
                        </g>
                        <g id="icon-pms" transform="translate(0.000000, 5.000000)">
                            <use id="Oval-5" stroke="#F8AD18" mask="url(#mask-6)" stroke-width="8" fill="#1F1F1F" xlink:href="#path-5"></use>
                            <polygon id="Fill-5" fill="#F8AD18" points="112.13371 179.666667 72.1111111 179.666667 116.421846 110.611111 72.1111111 41.5555556 112.13371 41.5555556 156.444444 110.611111"></polygon>
                        </g>
                        <g id="icon-arrow" transform="translate(268.000000, 101.000000)" fill="#BBBBBB">
                            <polygon id="Triangle-1" transform="translate(229.500000, 14.000000) rotate(-270.000000) translate(-229.500000, -14.000000) " points="229.5 7 243 21 216 21"></polygon>
                            <path d="M211,17 C212.656854,17 214,15.6568542 214,14 C214,12.3431458 212.656854,11 211,11 C209.343146,11 208,12.3431458 208,14 C208,15.6568542 209.343146,17 211,17 Z M195,17 C196.656854,17 198,15.6568542 198,14 C198,12.3431458 196.656854,11 195,11 C193.343146,11 192,12.3431458 192,14 C192,15.6568542 193.343146,17 195,17 Z M179,17 C180.656854,17 182,15.6568542 182,14 C182,12.3431458 180.656854,11 179,11 C177.343146,11 176,12.3431458 176,14 C176,15.6568542 177.343146,17 179,17 Z M163,17 C164.656854,17 166,15.6568542 166,14 C166,12.3431458 164.656854,11 163,11 C161.343146,11 160,12.3431458 160,14 C160,15.6568542 161.343146,17 163,17 Z M147,17 C148.656854,17 150,15.6568542 150,14 C150,12.3431458 148.656854,11 147,11 C145.343146,11 144,12.3431458 144,14 C144,15.6568542 145.343146,17 147,17 Z M131,17 C132.656854,17 134,15.6568542 134,14 C134,12.3431458 132.656854,11 131,11 C129.343146,11 128,12.3431458 128,14 C128,15.6568542 129.343146,17 131,17 Z M115,17 C116.656854,17 118,15.6568542 118,14 C118,12.3431458 116.656854,11 115,11 C113.343146,11 112,12.3431458 112,14 C112,15.6568542 113.343146,17 115,17 Z M99,17 C100.656854,17 102,15.6568542 102,14 C102,12.3431458 100.656854,11 99,11 C97.3431458,11 96,12.3431458 96,14 C96,15.6568542 97.3431458,17 99,17 Z M83,17 C84.6568542,17 86,15.6568542 86,14 C86,12.3431458 84.6568542,11 83,11 C81.3431458,11 80,12.3431458 80,14 C80,15.6568542 81.3431458,17 83,17 Z M67,17 C68.6568542,17 70,15.6568542 70,14 C70,12.3431458 68.6568542,11 67,11 C65.3431458,11 64,12.3431458 64,14 C64,15.6568542 65.3431458,17 67,17 Z M51,17 C52.6568542,17 54,15.6568542 54,14 C54,12.3431458 52.6568542,11 51,11 C49.3431458,11 48,12.3431458 48,14 C48,15.6568542 49.3431458,17 51,17 Z M35,17 C36.6568542,17 38,15.6568542 38,14 C38,12.3431458 36.6568542,11 35,11 C33.3431458,11 32,12.3431458 32,14 C32,15.6568542 33.3431458,17 35,17 Z M19,17 C20.6568542,17 22,15.6568542 22,14 C22,12.3431458 20.6568542,11 19,11 C17.3431458,11 16,12.3431458 16,14 C16,15.6568542 17.3431458,17 19,17 Z M3,17 C4.65685425,17 6,15.6568542 6,14 C6,12.3431458 4.65685425,11 3,11 C1.34314575,11 0,12.3431458 0,14 C0,15.6568542 1.34314575,17 3,17 Z" id="dots"></path>
                        </g>
                    </g>
                </g>
            </g>
        </g>
    </g>
</svg>