<svg width="548" height="360" viewBox="0 0 548 360" xmlns="http://www.w3.org/2000/svg" xmlns:xlink="http://www.w3.org/1999/xlink"><title>Group</title><defs><path id="a" d="M196 173v13H81v-14"/><mask id="j" x="0" y="0" width="115" height="14" fill="#fff"><use xlink:href="#a"/></mask><path d="M6.522 173C2.92 173 0 170.631 0 167.71V5.29C0 2.37 2.92 0 6.522 0h262.956C273.08 0 276 2.369 276 5.29v162.42c0 2.921-2.92 5.29-6.522 5.29H6.522z" id="b"/><mask id="k" x="0" y="0" width="276" height="173" fill="#fff"><use xlink:href="#b"/></mask><path id="c" d="M13 160.185h249.91V13H13z"/><mask id="l" x="0" y="0" width="249.911" height="147.185" fill="#fff"><use xlink:href="#c"/></mask><rect id="d" width="192" height="140" rx="6"/><mask id="m" x="0" y="0" width="192" height="140" fill="#fff"><use xlink:href="#d"/></mask><path id="e" d="M20 11h152v118H20z"/><mask id="n" x="0" y="0" width="152" height="118" fill="#fff"><use xlink:href="#e"/></mask><circle id="f" cx="12" cy="70" r="6"/><mask id="o" x="0" y="0" width="12" height="12" fill="#fff"><use xlink:href="#f"/></mask><path id="g" d="M0 18h72v84H0z"/><mask id="p" x="0" y="0" width="72" height="84" fill="#fff"><use xlink:href="#g"/></mask><circle id="h" cx="36" cy="109" r="5"/><mask id="q" x="0" y="0" width="10" height="10" fill="#fff"><use xlink:href="#h"/></mask><rect id="i" width="72" height="120" rx="8.4"/><mask id="r" x="0" y="0" width="72" height="120" fill="#fff"><use xlink:href="#i"/></mask></defs><g fill="none" fill-rule="evenodd"><g transform="translate(272 87)"><use stroke="#BBB" mask="url(#j)" stroke-width="6" xlink:href="#a"/><use stroke="#BBB" mask="url(#k)" stroke-width="6" xlink:href="#b"/><use stroke="#BBB" mask="url(#l)" stroke-width="4" xlink:href="#c"/><path fill="#F8AD18" d="M137.042 120.75H117l22.19-34.375L117 52h20.042l22.19 34.375z"/></g><g transform="translate(0 220)"><use stroke="#BBB" mask="url(#m)" stroke-width="6" xlink:href="#d"/><use stroke="#BBB" mask="url(#n)" stroke-width="4" xlink:href="#e"/><use stroke="#BBB" mask="url(#o)" stroke-width="4" xlink:href="#f"/><circle fill="#BBB" cx="180" cy="70" r="2"/><path fill="#F8AD18" d="M94.58 102H76l20.645-30.968L76 38h18.58l20.646 33.032z"/></g><g transform="translate(60)"><rect width="72" height="120" rx="8.4"/><use stroke="#BBB" mask="url(#p)" stroke-width="4" xlink:href="#g"/><use stroke="#BBB" mask="url(#q)" stroke-width="4" xlink:href="#h"/><rect fill="#BBB" x="31" y="10" width="10.8" height="2.4" rx="1.2"/><use stroke="#BBB" mask="url(#r)" stroke-width="6" xlink:href="#i"/><path d="M35.032 79H24l12.258-18.387L24 41h11.032L47.29 60.613z" fill="#F8AD18"/></g></g></svg>